{"title":"Reality Kings - Round and Brown - Poolside Dreams","uid":4997535,"size":433723885,"categoryP":"porn","categoryS":"movie_clips","magnet":"?xt=urn:btih:f256881fda3d3b9e4fefbda88700dd1a33f19959&amp;dn=Reality+Kings+-+Round+and+Brown+-+Poolside+Dreams&amp;tr=udp%3A%2F%2Ftracker.openbittorrent.com%3A80&amp;tr=udp%3A%2F%2Fopen.demonii.com%3A1337&amp;tr=udp%3A%2F%2Ftracker.coppersurfer.tk%3A6969&amp;tr=udp%3A%2F%2Fexodus.desync.com%3A6969","seeders":1,"leechers":0,"uploader":"gorgon99","files":1,"time":1247349193,"description":"&quot;Today we have an extra special treat for all you RnB fans out there. We are glad to present America. A certified dime piece in all 50 states. America had it all. The looks the ass the tits the legs the nice teeth for goodness sakes. She was extremely sexy and had one of the nicest looking pussies i have ever seen.And she loves to fuck.When she saw my boy Ramon she told me even got wet.A freak like this always welcome to the RnB family. America is truly a bad girl so have fun checking this one out. EnJoy!&quot;\n\nOne WMV file:\n\nFormat : Windows Media \nFile size : 414 MiB \nDuration : 39mn 48s \nOverall bit rate mode : Constant \nOverall bit rate : 1 452 Kbps \nMaximum Overall bit rate : 1 463 Kbps \nMovie name : RealityKings.com \nPerformer : America \nEncoded date : UTC 2009-07-09 02:15:29.800 \nComment : Poolside Dreams \nRating : Adults Only \n\nVideo  ID : 2 \nFormat : VC-1 \nFormat profile : MP@ML \nCodec ID : WMV3 \nCodec ID/Info : Windows Media Video 9 \nCodec ID/Hint : WMV3 \nDuration : 39mn 46s \nBit rate mode : Constant \nBit rate : 1 400 Kbps \nWidth : 720 pixels \nHeight : 404 pixels \nDisplay aspect ratio : 16/9 \nFrame rate : 29.970 fps \nResolution : 24 bits \nScan type : Progressive \nBits/(Pixel*Frame) : 0.161 \nStream size : 398 MiB (96%) \n\nAudio  ID : 1 \nFormat : WMA2 \nFormat profile : L2 \nCodec ID : 161 \nCodec ID/Info : Windows Media Audio 2 \nDescription of the codec : Windows Media Audio 9.1 - 48 kbps, 44 kHz, stereo 1-pass CBR \nDuration : 39mn 48s \nBit rate mode : Constant \nBit rate : 48.0 Kbps \nChannel(s) : 2 channels \nSampling rate : 44.1 KHz \nResolution : 16 bits \nStream size : 13.7 MiB (3%) \n\n","torrent":{"xt":"urn:btih:f256881fda3d3b9e4fefbda88700dd1a33f19959","amp;dn":"Reality+Kings+-+Round+and+Brown+-+Poolside+Dreams","amp;tr":["udp%3A%2F%2Ftracker.openbittorrent.com%3A80","udp%3A%2F%2Fopen.demonii.com%3A1337","udp%3A%2F%2Ftracker.coppersurfer.tk%3A6969","udp%3A%2F%2Fexodus.desync.com%3A6969"],"infoHash":"f256881fda3d3b9e4fefbda88700dd1a33f19959","infoHashBuffer":{"type":"Buffer","data":[242,86,136,31,218,61,59,158,79,239,189,168,135,0,221,26,51,241,153,89]},"announce":[],"urlList":[]}}